<svg id="icons" enable-background="new 0 0 64 64" height="512" viewBox="0 0 64 64" width="512" xmlns="http://www.w3.org/2000/svg"><g><g><path d="m1 32c0-17.12 13.88-31 31-31 17.119 0 31 13.88 31 31s-13.881 31-31 31c-17.12 0-31-13.88-31-31zm31-28c-15.471 0-28 12.54-28 28 0 7.73 3.13 14.73 8.199 19.8 5.061 5.07 12.061 8.2 19.801 8.2 15.46 0 28-12.54 28-28 0-7.729-3.141-14.729-8.2-19.8-5.071-5.07-12.071-8.2-19.8-8.2z" fill="#ed5565"/></g><g><path d="m51.8 12.2c-5.071-5.07-12.071-8.2-19.8-8.2-15.471 0-28 12.54-28 28 0 7.73 3.13 14.73 8.199 19.8 5.061 5.07 12.061 8.2 19.801 8.2 15.46 0 28-12.54 28-28 0-7.729-3.141-14.729-8.2-19.8z" fill="#e6e9ed"/></g><g><path d="m36 20.01h-.011c-2.21.011-3.989 1.79-3.989 4h-.011c0-2.21-1.77-3.989-3.989-4h-.011c-2.21-.01-3.989-1.789-3.989-4v6 6 6 5.99l-.011.01.011.011c0 2.21 1.779 3.989 3.989 4h.011c2.22.01 3.989 1.79 3.989 4h.011c0-2.21 1.779-3.99 3.989-4h.011c2.21-.011 3.989-1.79 3.989-4v-.021-5.99-6-4-2-6c0 2.211-1.779 3.99-3.989 4z" fill="#ffce54"/></g><g><path d="m35.995 45.016c-.553 0-1-.447-1-1s.447-1 1-1c1.654 0 3-1.346 3-3 0-.553.447-1 1-1s1 .447 1 1c0 2.756-2.243 5-5 5z" fill="#f6bb42"/></g><g><path d="m32.003 49.02c-.553 0-1-.447-1-1 0-2.757 2.243-5 5-5 .553 0 1 .447 1 1s-.447 1-1 1c-1.654 0-3 1.346-3 3 0 .552-.447 1-1 1z" fill="#f6bb42"/></g><g><path d="m35.995 39.015c-.553 0-1-.447-1-1s.447-1 1-1c1.654 0 3-1.347 3-3.002 0-.553.447-1 1-1s1 .447 1 1c0 2.758-2.243 5.002-5 5.002z" fill="#f6bb42"/></g><g><path d="m39.995 41c-.553 0-1-.447-1-1v-5.987c0-.553.447-1 1-1s1 .447 1 1v5.987c0 .553-.447 1-1 1z" fill="#f6bb42"/></g><g><path d="m32.003 43.02c-.553 0-1-.447-1-1 0-2.758 2.243-5.001 5-5.001.553 0 1 .447 1 1s-.447 1-1 1c-1.654 0-3 1.347-3 3.001 0 .552-.447 1-1 1z" fill="#f6bb42"/></g><g><path d="m32.003 49.02c-.553 0-1-.447-1-1v-6c0-.553.447-1 1-1s1 .447 1 1v6c0 .552-.447 1-1 1z" fill="#f6bb42"/></g><g><g><path d="m35.995 33.01c-.553 0-1-.447-1-1s.447-1 1-1c1.654 0 3-1.346 3-3 0-.553.447-1 1-1s1 .447 1 1c0 2.757-2.243 5-5 5z" fill="#f6bb42"/></g><g><path d="m39.995 35.011c-.553 0-1-.447-1-1v-6.001c0-.553.447-1 1-1s1 .447 1 1v6.001c0 .552-.447 1-1 1z" fill="#f6bb42"/></g><g><path d="m32.003 37.016c-.553 0-1-.447-1-1 0-2.758 2.243-5.002 5-5.002.553 0 1 .447 1 1s-.447 1-1 1c-1.654 0-3 1.347-3 3.002 0 .552-.447 1-1 1z" fill="#f6bb42"/></g><g><path d="m32.003 43.018c-.553 0-1-.447-1-1v-6.002c0-.553.447-1 1-1s1 .447 1 1v6.002c0 .552-.447 1-1 1z" fill="#f6bb42"/></g></g><g><path d="m35.995 27.008c-.553 0-1-.447-1-1s.447-1 1-1c1.654 0 3-1.346 3-3 0-.553.447-1 1-1s1 .447 1 1c0 2.757-2.243 5-5 5z" fill="#f6bb42"/></g><g><path d="m39.995 29.008c-.553 0-1-.447-1-1v-6c0-.553.447-1 1-1s1 .447 1 1v6c0 .553-.447 1-1 1z" fill="#f6bb42"/></g><g><path d="m32.003 31.012c-.553 0-1-.447-1-1 0-2.757 2.243-5 5-5 .553 0 1 .447 1 1s-.447 1-1 1c-1.654 0-3 1.346-3 3 0 .552-.447 1-1 1z" fill="#f6bb42"/></g><g><path d="m32.003 37.014c-.553 0-1-.447-1-1v-6.002c0-.553.447-1 1-1s1 .447 1 1v6.002c0 .552-.447 1-1 1z" fill="#f6bb42"/></g><g><g><path d="m35.995 21.006c-.553 0-1-.447-1-1s.447-1 1-1c1.654 0 3-1.346 3-3 0-.553.447-1 1-1s1 .447 1 1c0 2.757-2.243 5-5 5z" fill="#f6bb42"/></g><g><path d="m39.995 23.006c-.553 0-1-.447-1-1v-6c0-.553.447-1 1-1s1 .447 1 1v6c0 .553-.447 1-1 1z" fill="#f6bb42"/></g><g><path d="m32.003 25.01c-.553 0-1-.447-1-1 0-2.757 2.243-5 5-5 .553 0 1 .447 1 1s-.447 1-1 1c-1.654 0-3 1.346-3 3 0 .553-.447 1-1 1z" fill="#f6bb42"/></g><g><path d="m32.003 31.01c-.553 0-1-.447-1-1v-6c0-.553.447-1 1-1s1 .447 1 1v6c0 .553-.447 1-1 1z" fill="#f6bb42"/></g></g><g><path d="m28.005 45.016c-2.757 0-5-2.243-5-5 0-.553.447-1 1-1s1 .447 1 1c0 1.654 1.346 3 3 3 .553 0 1 .447 1 1s-.447 1-1 1z" fill="#f6bb42"/></g><g><path d="m31.997 49.02c-.553 0-1-.447-1-1 0-1.654-1.346-3-3-3-.553 0-1-.447-1-1s.447-1 1-1c2.757 0 5 2.243 5 5 0 .552-.447 1-1 1z" fill="#f6bb42"/></g><g><path d="m28.005 39.015c-2.757 0-5-2.244-5-5.002 0-.553.447-1 1-1s1 .447 1 1c0 1.655 1.346 3.002 3 3.002.553 0 1 .447 1 1s-.447 1-1 1z" fill="#f6bb42"/></g><g><path d="m24.005 41c-.553 0-1-.447-1-1v-5.987c0-.553.447-1 1-1s1 .447 1 1v5.987c0 .553-.447 1-1 1z" fill="#f6bb42"/></g><g><path d="m31.997 43.02c-.553 0-1-.447-1-1 0-1.654-1.346-3.001-3-3.001-.553 0-1-.447-1-1s.447-1 1-1c2.757 0 5 2.243 5 5.001 0 .552-.447 1-1 1z" fill="#f6bb42"/></g><g><path d="m28.005 33.01c-2.757 0-5-2.243-5-5 0-.553.447-1 1-1s1 .447 1 1c0 1.654 1.346 3 3 3 .553 0 1 .447 1 1s-.447 1-1 1z" fill="#f6bb42"/></g><g><path d="m24.005 35.011c-.553 0-1-.447-1-1v-6.001c0-.553.447-1 1-1s1 .447 1 1v6.001c0 .552-.447 1-1 1z" fill="#f6bb42"/></g><g><path d="m31.997 37.016c-.553 0-1-.447-1-1 0-1.655-1.346-3.002-3-3.002-.553 0-1-.447-1-1s.447-1 1-1c2.757 0 5 2.244 5 5.002 0 .552-.447 1-1 1z" fill="#f6bb42"/></g><g><path d="m28.005 27.008c-2.757 0-5-2.243-5-5 0-.553.447-1 1-1s1 .447 1 1c0 1.654 1.346 3 3 3 .553 0 1 .447 1 1s-.447 1-1 1z" fill="#f6bb42"/></g><g><path d="m24.005 29.008c-.553 0-1-.447-1-1v-6c0-.553.447-1 1-1s1 .447 1 1v6c0 .553-.447 1-1 1z" fill="#f6bb42"/></g><g><path d="m31.997 31.012c-.553 0-1-.447-1-1 0-1.654-1.346-3-3-3-.553 0-1-.447-1-1s.447-1 1-1c2.757 0 5 2.243 5 5 0 .552-.447 1-1 1z" fill="#f6bb42"/></g><g><path d="m28.005 21.006c-2.757 0-5-2.243-5-5 0-.553.447-1 1-1s1 .447 1 1c0 1.654 1.346 3 3 3 .553 0 1 .447 1 1s-.447 1-1 1z" fill="#f6bb42"/></g><g><path d="m24.005 23.006c-.553 0-1-.447-1-1v-6c0-.553.447-1 1-1s1 .447 1 1v6c0 .553-.447 1-1 1z" fill="#f6bb42"/></g><g><path d="m31.997 25.01c-.553 0-1-.447-1-1 0-1.654-1.346-3-3-3-.553 0-1-.447-1-1s.447-1 1-1c2.757 0 5 2.243 5 5 0 .553-.447 1-1 1z" fill="#f6bb42"/></g><g><path d="m32.003 25.01c-.553 0-1-.447-1-1v-13.005c0-.552.447-1 1-1s1 .448 1 1v13.005c0 .553-.447 1-1 1z" fill="#f6bb42"/></g><g><path d="m36.003 21.006c-.553 0-1-.447-1-1v-6.002c0-.553.447-1 1-1s1 .447 1 1v6.002c0 .553-.447 1-1 1z" fill="#f6bb42"/></g><g><path d="m28.005 21.006c-.553 0-1-.447-1-1v-6.002c0-.553.447-1 1-1s1 .447 1 1v6.002c0 .553-.447 1-1 1z" fill="#f6bb42"/></g><path d="m32.003 47.02c-.553 0-1 .447-1 1v11.955c.331.011.663.025.997.025.336 0 .67-.014 1.003-.025v-11.955c0-.553-.447-1-1-1z" fill="#f6bb42"/><g><path d="m12.201 52.799c-.256 0-.512-.098-.707-.293-.391-.391-.391-1.023 0-1.414l39.598-39.598c.391-.391 1.023-.391 1.414 0s.391 1.023 0 1.414l-39.598 39.598c-.195.195-.451.293-.707.293z" fill="#ed5565"/></g></g></svg>